<?xml version="1.0" encoding="UTF-8"?>
<svg id="Layer_1" data-name="Layer 1" xmlns="http://www.w3.org/2000/svg" viewBox="0 0 2480.3 2669.17">
  <defs>
    <style>
      .cls-1 {
        fill: #08466f;
        stroke-width: 0px;
      }
    </style>
  </defs>
  <path class="cls-1" d="m263.17.03c5.81,0,10.39,0,14.98,0,117.62,0,235.23,0,352.85,0,485.13,0,970.25,0,1455.38,0,4.33,0,8.67-.12,12.99.08,6.69.31,7.96,1.5,8.44,8.37.32,4.64.15,9.32.15,13.98.02,333.07.02,666.13.05,999.2.01,206.83.05,413.67.08,620.5q0,18.55-18.17,18.52c-60.64-.07-121.28-.13-181.92-.17-16.53-.01-17.53,1.04-17.48,17.55.07,22.32.09,44.63.13,66.95,0,1.67.06,3.33-.03,5-.38,6.92-1.53,7.81-8.72,6.74-1.97-.29-3.93-.74-5.87-1.2-37.83-9.15-75.65-18.3-113.48-27.47-1.62-.39-3.21-.89-4.8-1.37-7.95-2.35-8.79-3.41-9.2-11.9-.1-1.99-.05-4-.05-5.99.07-171.53.14-343.06.2-514.59,0-3.88,0-7.76,0-13.11,4.21,2.13,6.86,3.3,9.34,4.75,40.31,23.41,80.51,47.01,120.96,70.18,8.57,4.91,11.82,11.21,11.79,21.02-.27,105.58-.2,211.16-.22,316.75q0,19.01,18.67,19.03c41.98.01,83.96,0,125.95,0,2,0,4,.03,6-.02,10.97-.27,12.14-1.38,12.43-11.98.12-4.33.07-8.66.07-12.99,0-306.09-.04-612.18.02-918.26.04-199.51.24-399.01.35-598.52,0-4.66-.14-9.32-.39-13.97-.27-5.17-2.94-7.93-8.31-7.75-2,.07-4,.04-6,.04-568.76,0-1137.52-.01-1706.28-.02q-17.3,0-17.29,17.03c0,507.59,0,1015.19.01,1522.78,0,4.66-.13,9.34.28,13.98.65,7.54,2.3,8.97,9.98,9.58,1.99.16,4,.1,5.99.1,43.65,0,87.3,0,130.94,0,1.67,0,3.33.04,5-.04,9.15-.46,11.03-2.3,11.38-11.34.13-3.33.04-6.66.04-9.99,0-155.21,0-310.42,0-465.63v-15.51c4.77,1.57,7.99,2.05,10.61,3.57,40.61,23.55,81.1,47.31,121.74,70.81,7.27,4.2,9.85,10.05,9.78,18.11-.22,24.31-.13,48.63-.12,72.94.02,141.55.04,283.11.07,424.66,0,3.66.05,7.33-.03,10.99-.27,11.44-1.9,13.54-13.3,16.34-38.77,9.51-77.55,18.94-116.34,28.39-.97.24-1.97.35-2.95.52-8.32,1.44-9.45.69-9.48-7.74-.09-23.98,0-47.96.02-71.94,0-2.66-.02-5.33-.08-7.99-.12-5.2-2.76-8.02-8-8.23-2.99-.12-6-.11-8.99-.11-61.64,0-123.28,0-184.92-.02-14.75,0-15.15-.47-15.25-15.04,0-1.33,0-2.66,0-4-.01-540.57-.03-1081.13,0-1621.7,0-6.19.61-12.38.99-19.82Z"/>
  <path class="cls-1" d="m1386.53,1674.51c-5.09,0-8.99.12-12.87-.02-38.95-1.41-77.89-2.82-116.83-4.34-10.54-.41-11.57-1.69-11.61-12.69-.02-4.66-.03-9.32-.03-13.99,0-507.86,0-1015.72,0-1523.58v-21.1c3.81,1.63,6.25,2.38,8.41,3.64,104.45,60.77,208.85,121.65,313.38,182.29,8.97,5.2,11.9,12.07,11.88,22.08-.23,182.16-.23,364.33-.27,546.49,0,39.63.03,79.26-.08,118.89-.02,5.9-.69,11.8-1.11,18.52-8.07-1.23-13.97-4.71-19.85-8.13-52.07-30.32-104.12-60.67-156.2-90.96-3.62-2.11-7.5-3.77-12.36-6.19-.72,5.2-1.44,9.06-1.73,12.96-.27,3.64-.08,7.32-.08,10.99,0,249.1,0,498.2-.03,747.31,0,5.54-.37,11.08-.61,17.84Z"/>
  <path class="cls-1" d="m1196.28,419.94c0,5.43,0,8.66,0,11.88,0,407,0,814,0,1221.01q0,15.71-15.22,15.95c-37.31.64-74.62,1.33-111.93,1.96-14.11.24-15.24-.83-15.21-15.25.19-111.91.43-223.81.66-335.72,0-2-.04-4,.05-5.99.51-10.76-4.11-17.97-13.63-23.4-42.21-24.1-84.15-48.67-126.2-73.06-12.67-7.35-25.12-15.13-38.12-21.85-11.2-5.78-15.19-14.16-15.17-26.58.29-151.54.23-303.09.25-454.63,0-27.64.33-55.3-.2-82.93-.24-12.48,4.62-20.26,15.43-26.5,100.32-57.98,200.41-116.34,300.59-174.56,5.44-3.16,11.01-6.08,18.71-10.31Z"/>
  <path class="cls-1" d="m2325.87,2008.88c-3.11-.89-6.26-1.66-9.32-2.68-129.74-43.54-261.41-80.1-395.14-109.19-69.59-15.14-139.52-28.58-210.01-38.83-47.42-6.9-94.87-13.81-142.49-19.16-47.3-5.32-94.79-9.08-142.25-12.86-108.71-8.65-217.64-10.02-326.59-7.44-48.93,1.16-97.83,4.23-146.7,7.23-35.55,2.18-71.08,5.13-106.52,8.72-37.42,3.79-74.81,8.06-112.04,13.35-53.36,7.59-106.71,15.5-159.81,24.73-79.34,13.79-158,30.97-236.14,50.45-95.91,23.9-190.8,51.3-284.6,82.49-3.63,1.21-7.4,1.98-11.11,2.96-.43-.77-.85-1.53-1.28-2.3,2.4-1.88,4.69-3.92,7.21-5.61,63.74-42.83,130.66-79.71,201.85-108.77,66.86-27.29,134-53.84,203.47-73.91,83.78-24.2,168.49-44.66,254.5-59.19,47.23-7.98,94.61-15.21,142.13-21.17,38.95-4.89,78.18-7.64,117.32-10.91,65.09-5.44,130.31-8.47,195.61-8.78,36.29-.17,72.6,1.15,108.88,2.44,29.62,1.05,59.23,2.73,88.8,4.68,31.23,2.06,62.43,4.51,93.61,7.29,26.52,2.36,53.03,4.95,79.44,8.31,34.65,4.41,69.31,8.96,103.75,14.76,42.3,7.13,84.71,14.16,126.48,23.77,128.59,29.6,254.95,66.44,375.4,121.38,61.01,27.83,119.74,59.72,175.53,96.96,3.04,2.03,5.92,4.29,8.76,6.59.96.77,1.55,2,2.3,3.02-.36.56-.71,1.12-1.07,1.68Z"/>
  <path class="cls-1" d="m671.36,915.39c4.47,2.38,7.67,3.94,10.74,5.73,39.72,23.06,79.3,46.39,119.24,69.06,9.06,5.14,12.23,11.46,12.19,21.63-.31,97.56-.23,195.12-.24,292.68-.01,123.53.05,247.06-.06,370.59-.01,14.09,4.01,16.98-16.82,19.87-36.24,5.04-72.3,11.37-108.46,16.97-20.18,3.12-16.56.16-16.56-14.38-.04-256.05-.03-512.1-.03-768.15,0-4.21,0-8.42,0-14Z"/>
  <path class="cls-1" d="m1697.84,529.45v1183.16c-5.03-.23-9.56-.02-13.94-.71-15.12-2.38-30.19-5.06-45.27-7.65-8.74-1.5-10.02-2.95-10.08-11.65-.05-6.66,0-13.32,0-19.98-.03-304.41-.06-608.82-.1-913.23,0-57.28-.07-114.57-.08-171.85,0-3.99.13-7.99.28-11.98.19-5.06,2.53-8.98,6.84-11.5,18.97-11.08,38-22.07,57.04-33.03,1.09-.63,2.46-.75,5.32-1.57Z"/>
  <path class="cls-1" d="m411.88,2173.62c-1.65,4.23-3.45,8.41-4.93,12.7-20,58.21-40.07,116.39-59.85,174.68-5.43,15.99-7.32,17.92-26.45,16.49-6.59-.49-11.19-3.63-13.41-10.12-3.55-10.39-7.39-20.67-10.95-31.06-17.4-50.66-34.73-101.34-52.13-152-1.21-3.53-1.03-8.94-6.78-8.1-5.8.84-4.09,6.03-4.09,9.69-.01,61.94.02,123.89.2,185.83.05,15.81.13,16.66-18.15,15.8-5.96-.28-7.15-1.93-7.57-8.26-.17-2.65-.07-5.33-.08-7.99-.05-70.94-.09-141.87-.14-212.81,0-.33,0-.67,0-1,.04-14.09.84-14.83,14.7-14.52,5.99.13,11.99.17,17.98,0,14.7-.4,16.33.68,20.84,14.35,9.26,28.12,18.5,56.25,27.8,84.36,10.13,30.64,20.26,61.28,30.51,91.87,1.42,4.24,3.55,8.23,5.36,12.34.77-.03,1.54-.06,2.32-.08,2.96-7.59,6.25-15.07,8.83-22.79,16.62-49.86,33.09-99.78,49.6-149.68,2.3-6.95,4.35-13.99,6.92-20.84,2.89-7.73,5.98-9.62,14.32-9.64,9.33-.02,18.66-.08,27.98.09,7.41.14,9.32,2.12,9.79,9.48.13,1.99.04,4,.04,5.99,0,71.27,0,142.54,0,213.81,0,15.1-1.5,16.47-16.74,15.6-7.35-.42-9.34-2.28-9.86-9.63-.23-3.32-.11-6.66-.11-9.99.02-58.95.06-117.89.06-176.84,0-3.99.03-8.02-.49-11.96-.26-1.98-1.72-3.81-2.63-5.71-.96-.02-1.93-.04-2.89-.06Z"/>
  <path class="cls-1" d="m1357.44,2262.15c4.25,2.94,7.32,5.32,10.63,7.32,15.51,9.39,23.62,23.35,24.19,41.18.35,10.9.16,22.08-1.88,32.73-3.84,20.01-16.28,33.61-36.2,38.39-13.18,3.16-26.88,5.05-40.42,5.53-25.62.91-51.29.45-76.94.43-10.41,0-11.8-1.32-11.81-11.34-.04-73.92-.03-147.85.03-221.77,0-10.64,1.05-11.71,11.3-11.74,25.98-.09,51.97-.38,77.94.15,10.58.21,21.29,1.53,31.63,3.78,18,3.91,30.49,14.88,35.17,33,2.63,10.21,4.98,20.86,4.98,31.31-.01,17.32-6.81,32.37-20.4,43.83-2.27,1.92-4.47,3.92-8.21,7.2Zm-106.67,58.33c0,10.98-.1,21.96.03,32.94.12,10.16,2.86,12.97,13.16,13.04,16.97.11,33.97.43,50.91-.31,8.87-.39,17.88-2.06,26.41-4.56,12.72-3.73,20.63-12.78,24.17-25.66,2.64-9.58,2.08-19.07-.11-28.61-4.16-18.14-14.39-28.03-32.9-29.46-22.87-1.76-45.83-2.53-68.77-3.39-10.15-.38-12.75,2.53-12.87,13.06-.12,10.98-.03,21.96-.04,32.94Zm.01-110.92h-.05c0,10.97-.12,21.94.04,32.91.12,7.99,2.22,10.59,9.88,10.63,21.94.1,43.9.2,65.82-.61,11.69-.43,20.65-6.75,26.24-17.29,7.21-13.57,8.43-27.69,4.4-42.5-4.34-15.91-14.33-25.66-30.84-26.62-21.54-1.26-43.14-1.51-64.72-1.73-7.67-.08-10.54,3.31-10.71,11.31-.24,11.3-.06,22.6-.06,33.91Z"/>
  <path class="cls-1" d="m962.89,2617.36v-118.09h20.07c.28,3.76.8,7.59.81,11.43.08,24.98.04,49.95.04,74.93,0,3.92,0,7.83,0,12.47h39.45c.24-15.17.48-30.58.72-46.61h20.67c1.3,15.31-.25,30.85.97,47.32,4.82,0,8.73.08,12.63-.01,11.18-.26,14.31-2.87,14.85-14.11.56-11.63.26-23.3.38-34.96.02-1.95.28-3.9.47-6.53h20.24v51.99c6.33,4.29,13.75,5.03,28.56,2.42,2.34-20.04.1-40.02-3.68-60.54,7.38-1.07,13.79-2,20.36-2.95,5.96,21.4,5.55,42.35,5.57,63.92h45.62v-63.23h21.67v63.25h20.81c1.16-15.05-.05-30.28.76-46.32h20.9v45.7c7.26,2.14,13.49,1.53,19.66.89,4.1-.43,6.7-3.12,7.39-7.07.8-4.56,1.4-9.2,1.49-13.82.21-11.24.07-22.49.07-34.33h20.84c1.33,8.48.48,17.38.62,26.2.14,8.58.03,17.17.03,26.45,5.87,3.67,14.7,4.43,28.03,1.64,1.81-19.77.19-39.51-4.02-60.21,7.03-1.12,13.4-2.14,20.5-3.27,7.52,27.76,5.3,55.23,5.25,84.02-20.12-1.81-39.73,3.43-58.78-4.29-2.1-.85-4.98-.09-7.43.32-6.83,1.14-13.62,3.55-20.44,3.59-53.97.3-107.95-.24-161.9.52-10.76.15-19.69-7.63-31.72-3.15-10.12,3.77-22.26,2.36-33.53,2.73-10.98.36-21.99.12-32.98.06-10.99-.06-21.98-.24-32.97-.35-3.6-.04-7.19,0-11.97,0Z"/>
  <path class="cls-1" d="m2480.3,2385.95c-2.6.71-3.54,1.14-4.5,1.21-22.19,1.63-22.31,1.63-31.68-18.39-9.31-19.89-18.44-39.86-27.67-59.79-1.12-2.41-2.25-4.83-3.56-7.15-3.75-6.66-9.35-9.99-17.17-9.89-14.98.2-29.97.1-44.96.2-10.67.07-13.03,2.3-13.05,12.88-.04,21.98.1,43.95.16,65.93,0,2.66.2,5.35-.08,7.99-.67,6.44-3.01,8.46-9.71,8.79-15.54.75-16.72-.31-16.72-15.52,0-72.26.03-144.52.06-216.78,0-11.6.88-12.53,12.49-12.56,25.98-.07,51.97-.4,77.94.07,9.91.18,19.91,1.61,29.66,3.54,25.2,5,40.47,20.43,45.49,45.65,3.42,17.17,3.63,34.4-.61,51.49-4.06,16.34-13.4,28.77-28.09,37.12-2.31,1.31-4.68,2.54-6.95,3.94-3.98,2.46-5.16,5.9-3.28,10.26,1.06,2.44,2.15,4.87,3.28,7.27,11.36,24.07,22.75,48.13,34.09,72.22,1.66,3.53,3.04,7.2,4.85,11.52Zm-142.53-169.57h.03c0,14.64-.16,29.27.07,43.91.13,7.93,2.44,10.53,10.03,10.58,20.29.13,40.62.62,60.85-.53,25.79-1.46,39.49-14.81,42.55-40.26.98-8.14.62-16.59-.21-24.78-2.55-24.98-14.75-36.96-39.79-38.59-20.25-1.32-40.55-1.81-60.84-2.37-10.08-.28-12.51,2.19-12.64,12.13-.17,13.3-.04,26.61-.04,39.92Z"/>
  <path class="cls-1" d="m1889.56,2264.87c0-35.28,0-70.56,0-105.84,0-2.66-.11-5.34.14-7.98.48-4.87,2.76-8.22,8.18-8.15,31.61.37,63.36-.97,94.78,1.61,39.29,3.22,61.3,24.68,69.27,63.17,7.86,38,7.48,76.02-1.52,113.83-1.61,6.76-3.8,13.48-6.55,19.85-11.39,26.36-31.49,41.68-60.07,44.66-14.52,1.51-29.22,1.42-43.84,1.68-15.31.27-30.63.1-45.95.1-13.04,0-14.42-1.29-14.44-14.09-.04-36.28-.01-72.55,0-108.83Zm26.25-.59h-.03c0,29.28-.06,58.56.03,87.84.04,11.66,2.64,14.3,14,14.38,14.65.09,29.3.16,43.94-.11,29.39-.53,47.52-13.67,56.95-41.14,13.87-40.41,12.93-81.15,1.43-121.75-6.1-21.54-21.08-35.05-43.4-37.26-20.78-2.06-41.83-1.67-62.76-1.84-6.65-.06-9.31,3.32-10.01,10.05-.24,2.31-.13,4.65-.13,6.98,0,27.62,0,55.24,0,82.85Z"/>
  <path class="cls-1" d="m1840.13,2387.04c-8.55,0-15.74.38-22.87-.12-5.42-.38-7.27-5.26-9.24-9.51-10.24-22.03-20.47-44.06-30.7-66.1-1.12-2.41-2.19-4.85-3.34-7.26-3.99-8.34-10.32-12.43-19.87-12.15-14.31.42-28.64.2-42.96.25-11.55.04-13.98,2.33-13.97,14.12.02,21.65.04,43.29.47,64.93.39,19.66-4.8,16.53-17.99,16.3-5.96-.1-7.54-2.06-8.12-7.91-.23-2.31-.11-4.66-.11-6.99-.05-70.93-.1-141.87-.13-212.8,0-16.3.73-17.01,16.76-17,22.99.01,45.98-.18,68.96.09,9.3.11,18.65.75,27.88,1.93,27.27,3.51,45.4,20.1,51.84,46.93,4.21,17.51,3.77,35.01-.7,52.38-4.09,15.88-12.8,28.39-27.51,36.32-2.63,1.42-5.27,2.87-7.75,4.54-3.42,2.3-4.87,5.38-3.02,9.45,1.24,2.73,2.4,5.49,3.68,8.19,11.52,24.37,23.1,48.71,34.56,73.1,1.5,3.19,2.44,6.63,4.12,11.28Zm-142.86-169.53c0,13.64-.17,27.29.06,40.92.17,9.9,2.77,12.49,12.54,12.53,18.97.08,37.98.49,56.9-.49,8.04-.42,16.39-2.96,23.76-6.36,10.82-5,17.25-14.11,19.11-26.29,2.13-13.95,2.17-27.85-.25-41.71-2.56-14.63-14.03-25.88-28.55-28.29-3.61-.6-7.26-1.1-10.91-1.25-19.62-.82-39.24-1.64-58.87-2.21-11.06-.32-13.58,2.14-13.75,13.22-.2,13.31-.05,26.62-.06,39.93Z"/>
  <path class="cls-1" d="m1095.84,2386.83c-8.76,0-15.94.21-23.11-.07-5.24-.2-6.9-4.71-8.72-8.61-9.58-20.5-19.08-41.04-28.6-61.57-2.1-4.53-4.06-9.12-6.29-13.59-3.77-7.57-9.77-11.24-18.47-11.06-14.98.32-29.98.1-44.97.23-10.28.09-12.8,2.62-12.83,13.2-.05,22.31.09,44.63.12,66.94,0,2.99.43,6.16-.4,8.93-.67,2.24-2.75,5.45-4.55,5.69-5.52.74-11.25.62-16.8,0-1.46-.16-3.22-3.22-3.69-5.21-.67-2.85-.34-5.95-.34-8.95-.02-71.27-.02-142.54-.03-213.82,0-15.87.24-16.12,16.33-16.11,23.66.02,47.31-.15,70.96.11,8.64.09,17.31.79,25.88,1.88,27.96,3.57,46.77,21.12,52.43,48.73,3.53,17.22,3.2,34.36-1.4,51.42-4.19,15.56-12.75,27.67-27.09,35.43-2.34,1.27-4.63,2.63-6.93,3.97-4.44,2.57-5.83,6.18-3.65,10.95,1.24,2.73,2.49,5.45,3.77,8.16,11.37,24.07,22.78,48.13,34.09,72.23,1.48,3.15,2.5,6.52,4.25,11.13Zm-142.95-168.51c0,12.99-.07,25.98.02,38.96.09,11.64,2.02,13.78,13.17,13.47,21.64-.61,43.29-1.19,64.89-2.44,20.47-1.18,32.64-12.72,34.47-33.19,1.06-11.84.59-23.88.03-35.8-.6-12.7-7.47-22.21-18.56-27.66-6.06-2.98-13.3-4.41-20.12-4.85-20.27-1.29-40.6-1.88-60.91-2.45-10.27-.29-12.86,2.46-12.96,12.99-.13,13.65-.03,27.31-.04,40.96Z"/>
  <path class="cls-1" d="m581.42,2598.56v-99.48c4.26-.22,7.49-.52,10.72-.53,3.25,0,6.5.27,10.25.45v117.99c-19.44.32-38.56.64-58.47.97-.26,5.87-.44,10.78-.72,15.68-.8,14.15-6.91,22.31-20.65,25.86-18.07,4.66-36.25,3.32-55.57-.45-1.24-6.73-2.83-13.45-3.63-20.27-.76-6.53-.69-13.15-1.03-20.73h-159.57v-18.48c14.41-1.86,29.03.16,44.87-1.28.42-11.52,1.67-22.96-2.31-34.16-1.9-5.34-5.94-8.94-11.49-10.16-4.52-.99-9.19-1.41-13.82-1.76-3.54-.27-7.12-.05-11.24-.05v-17.64c13.42-.96,26.22-1.5,38.45,4.02,13.51,6.1,19.53,17.57,21.51,31.48.84,5.9.6,11.96.88,17.94.15,3.25.37,6.5.58,10.27h35.54v-63.49h21.77v63.42h35.45c0-4.02-.19-7.58.03-11.12.87-13.92,1.83-27.83,2.83-41.74.38-5.34,2.98-8.73,8.69-8.99,12.58-.56,25.3-2.47,37.73-1.31,19.24,1.79,29.51,13.84,30.78,33.22.46,6.97.25,13.98.42,20.97.06,2.62.34,5.23.56,8.51,6,1.87,11.91.95,17.77.88,5.97-.07,11.94-.02,19.68-.02Zm-59.79-.36c0-10.48.26-19.74-.09-28.99-.25-6.69-2.87-12.99-9.77-14.71-6.62-1.65-13.71-1.58-20.6-1.85-3.4-.14-5.49,2.08-5.79,5.58-1.12,13.15-2.17,26.3.58,39.97h35.67Zm-36.52,44.12c10.24,2.86,19.65,2.22,29.01-.21,4.2-1.09,7-4.1,7.35-8.42.41-5.07.1-10.19.1-15.43h-36.45v24.06Z"/>
  <path class="cls-1" d="m1526.78,2140.45c13.61-.6,26.92,2.07,39.9,6.6,20.37,7.11,35.06,20.61,42.3,40.86,4.22,11.8,6.88,24.28,8.95,36.67,2.24,13.42,3.98,27.09,4.08,40.66.09,12.53-1.86,25.13-3.67,37.59-1.67,11.5-3.83,22.97-6.65,34.24-6.19,24.69-21.8,40.81-46.4,47.4-27.18,7.29-54.53,7.96-81.71-.43-20.31-6.27-34.45-19.36-42.97-38.81-6.65-15.17-9.12-31.31-10.66-47.49-3.01-31.62-2.38-63.22,5.51-94.18,2.35-9.23,6.1-18.36,10.7-26.71,8.36-15.19,21.58-25.06,38.16-30.25,13.74-4.3,27.8-6.64,42.47-6.16Zm-72.03,126.41l1.75.14c0,8.66-.8,17.4.19,25.95,1.45,12.51,3.11,25.18,6.61,37.22,5.64,19.45,18.82,32.03,39.29,35.27,15.85,2.51,31.89,2.69,47.68-.58,19.57-4.05,32-16.42,36.34-35.58,7.17-31.64,10.32-63.72,5.48-96.08-1.71-11.46-3.79-23.03-7.3-34.04-5.41-16.95-17.51-27.88-34.52-33.32-12.62-4.03-25.52-4.84-38.51-2.82-29.36,4.57-46.08,20.11-51.12,49.36-3.09,17.96-4,36.3-5.89,54.46Z"/>
  <path class="cls-1" d="m676.21,2387.32c-7.07,0-13.29.3-19.46-.09-5.14-.33-7.01-4.48-8.23-8.84-3.67-13.13-7.3-26.27-10.95-39.41-.53-1.92-1.02-3.86-1.57-5.78-2.7-9.47-4.27-10.81-13.78-10.96-8.66-.13-17.32,0-25.98,0-18.65,0-37.3-.1-55.95-.02-11.07.05-13.01,1.62-15.95,12.39-3.59,13.15-7.58,26.22-10.43,39.54-1.84,8.62-11.01,14.83-20.25,14.16-6.4-.47-8.44-2.73-6.89-9.04,2.86-11.62,6.15-23.14,9.3-34.69,17.16-62.87,34.35-125.74,51.5-188.62,3.41-12.5,4.17-13.13,17.07-13.09,10.32.03,20.65.04,30.97,0,13.33-.04,14.65.81,18.07,13.42,8.36,30.81,16.53,61.67,24.93,92.47,11.64,42.67,23.42,85.29,35.12,127.95.86,3.13,1.48,6.34,2.46,10.6Zm-96.27-86.36v-.04c5.66,0,11.32,0,16.98,0,6.66,0,13.33.24,19.97-.07,7.4-.34,9.39-3.12,7.97-10.31-.45-2.28-1.14-4.51-1.77-6.75-8.33-29.77-16.66-59.55-25-89.32-2.06-7.36-3.89-14.8-6.32-22.04-2.07-6.17-5.36-8.31-11.01-8.22-5.5.09-9.59,2.45-11.69,7.7-.62,1.54-1.14,3.13-1.59,4.73-10.26,37.17-20.56,74.34-30.73,111.54-3.01,11.01-1.49,12.75,10.22,12.78,10.99.02,21.97,0,32.96,0Z"/>
  <path class="cls-1" d="m889.55,2387.39c-7.1,0-12.99.24-18.85-.07-5.67-.3-7.64-4.69-8.95-9.36-3.5-12.49-7.08-24.96-10.36-37.51-4.78-18.29-4.68-18.28-23.38-18.25-24.32.03-48.64-.04-72.96,0-12.38.02-14.78,1.99-17.94,14.07-3.37,12.87-6.63,25.77-10.24,38.58-2.62,9.27-11.02,14.54-20.58,13.43-5.37-.62-7.13-2.65-6.43-7.89.31-2.29,1.11-4.51,1.72-6.76,19.96-73.17,39.92-146.34,59.9-219.5,2.8-10.23,4.09-11.22,14.45-11.24,11.66-.03,23.32-.02,34.98,0,11.09.03,12.99,1.43,15.93,12.33,11.28,41.75,22.43,83.53,33.76,125.27,8.72,32.1,17.65,64.15,26.45,96.22.85,3.11,1.48,6.28,2.5,10.69Zm-96.36-86.43c11.65,0,23.29.12,34.94-.04,9.89-.13,12.08-2.73,9.48-12.23-10.46-38.13-21.1-76.21-31.83-114.27-2.18-7.74-5.37-10.21-11.53-10.24-6.49-.04-10.63,2.97-12.71,10.41-10.76,38.39-21.41,76.82-31.92,115.28-2.3,8.41-.22,10.91,8.64,11.05,11.64.17,23.29.04,34.94.04Z"/>
  <path class="cls-1" d="m2117.95,2265.33c0-35.28,0-70.56,0-105.84,0-1-.02-2,0-3,.17-12.35,1.44-13.65,13.83-13.66,40.29-.02,80.58,0,120.86,0,1,0,2.08-.25,2.98.05,3.3,1.11,8.77,1.76,9.34,3.75,1.27,4.43.48,9.64-.39,14.37-.25,1.36-3.55,2.67-5.63,3.06-2.9.54-5.97.23-8.96.23-29.3-.02-58.6-.06-87.9-.07-3,0-6.02-.13-8.98.2-6.22.7-8.14,2.66-8.79,8.74-.25,2.31-.17,4.65-.18,6.98-.04,19.64-.09,39.27-.09,58.91,0,12.64,1.57,14.21,14.54,14.22,22.97,0,45.95-.08,68.92-.14,2,0,4-.1,5.99-.01,10.22.44,12.94,4.02,11.18,13.99-.83,4.71-3.36,7.05-8.02,7.21-2.99.1-5.99.1-8.99.1-22.31-.05-44.62-.12-66.92-.18-2,0-4.01-.1-5.99.12-7.21.84-10.49,3.67-10.55,10.78-.22,23.96-.16,47.93.1,71.89.07,6.6,2.51,8.64,9.27,9.27,3.3.31,6.65.19,9.98.18,30.3-.03,60.6-.12,90.9-.1,9.03,0,11.11,1.65,11.88,8.51,1.08,9.52-1.68,12.85-11.51,12.88-23.97.08-47.95-.11-71.92-.12-16.31,0-32.63.1-48.94.15-14.81.05-16.08-1.22-16.07-15.63.02-35.61,0-71.23,0-106.84h.05Z"/>
  <path class="cls-1" d="m13.94,2278.95c0-35.61,0-71.22,0-106.83,0-2.33-.13-4.67.09-6.99.59-6.34,2.37-8.09,8.64-8.56,2.32-.17,4.66-.07,6.99-.07,38.62,0,77.24,0,115.86.01,2,0,4-.04,5.99.01,8.97.24,11.27,2.34,11.16,10.12-.11,8.34-2.87,11.3-11.55,11.32-31.63.07-63.26-.06-94.89-.06-14.96,0-15.99.91-16.16,15.61-.22,19.97-.28,39.93-.23,59.9.03,11.13,2.26,13.26,13.6,13.28,25.64.05,51.27-.1,76.91.03,8.77.04,11.36,3.11,10.75,11.59-.53,7.35-3.17,9.65-12.05,9.67-23.64.07-47.28-.03-70.92-.05-16.46-.01-18.35,1.96-18.27,18.17.09,18.63,0,37.27,0,55.9,0,2.66-.1,5.35.26,7.97.88,6.36,3.15,8.79,9.46,9.75,3.26.5,6.64.38,9.96.37,28.97-.09,57.93-.22,86.9-.33,1.66,0,3.33.06,4.99-.02,9.28-.43,11.6,3.98,11.15,13.5-.2,4.18-2.38,6.89-6.66,7.41-2.96.36-5.96.51-8.95.51-38.95.03-77.9.03-116.85.03-1.33,0-2.66.05-3.99,0-10.29-.32-12.17-2.09-12.18-12.44-.07-36.61-.03-73.22-.02-109.83Z"/>
  <path class="cls-1" d="m256.54,2537.08c7.08-1.08,13.2-2.01,20.18-3.08,7.25,27.64,6.04,55.04,5.5,83.87-20.06-1.67-39.62,3.35-58.68-4.11-2.15-.84-4.99-.31-7.43.07-7.49,1.17-14.93,3.66-22.41,3.71-49.96.34-99.93.25-149.9.08-6.27-.02-12.67-.72-18.77-2.13-11.67-2.69-19.26-10.26-22.54-21.75-3.36-11.79-3.33-23.73.1-35.5,4.2-14.42,14.47-22.57,29.01-23.57,15.23-1.05,30.58-.23,47.09-.23,1.47,20.83-.25,41.69.96,62.3,7.23,2.59,26.5,2.96,38.51.59v-62.74h20.77c1.66,20.89-.15,41.76,1.09,62.98,6.93,2.02,13.34,1.54,20.99.25v-46.29h21.65v47.14c6.35,0,11.59.29,16.77-.07,6.84-.48,9.58-2.81,10.28-9.86.88-8.92.95-17.93,1.2-26.91.16-5.94.03-11.89.03-18.59h20.91c0,14,.03,27.87-.03,41.74,0,1.98-.41,3.98-.76,5.94-.85,4.72,1.68,7.19,5.86,7.4,7.56.37,15.14.1,23.31.1,2.64-20.93-.55-40.89-3.7-61.34Zm-199.29,14.71c-8.87.57-16.42.81-23.92,1.6-5.61.59-9.48,4.37-9.93,9.7-.72,8.51-.67,17.15-.1,25.68.33,5.03,4.07,8.56,9.15,9.24,8.12,1.08,16.34,1.72,24.8-.26v-45.96Z"/>
  <path class="cls-1" d="m1892.1,2537.21c-2.08,5.96-3.8,10.91-5.8,16.65-3.15-.4-6.02-.72-8.87-1.14-11.3-1.68-21.68,2.55-26.76,11.4-5.83,10.16-4.97,20.32.66,30.36,2.12,3.79,5.38,4.42,9.27,4.38,10.6-.11,21.2-.04,32.66-.04v17.36c-7.24,2.12-226.22,2.41-241.39.11v-116.95h20.25v96.91c7.88,2.66,27.66,3.27,39,1.36,0-3.05-.17-6.27.03-9.47.89-14.24,1.84-28.48,2.86-42.72.41-5.67,3.17-8.54,9.23-9.66,12.92-2.38,25.83-2.97,38.73-1.08,16.57,2.42,26.4,12.15,28.55,28.73,1.44,11.15,1.53,22.47,2.27,34.57h36.05c-6.63-20.71-4.44-39.36,12.73-53.71,14.65-12.25,31.55-12.27,50.52-7.06Zm-158.19,60.94h36.13c.71-11.83,1.35-22.98-1.1-34.06-1.06-4.79-3.94-8.45-8.73-10.05-8.31-2.78-16.69-3.12-25.43-.43-3.14,15.03-3.29,29.63-.88,44.54Z"/>
  <path class="cls-1" d="m1531.21,2499.01v117.64h-155.55v-18.02h22.54v-75.51h20.32c2.88,7.64,1.01,15.96,1.32,24.06.32,8.31.07,16.64.07,24.96v25.57h29.65v-98.69h21.09c.25,4.02.7,7.86.71,11.7.06,24.96.01,49.92.06,74.88,0,3.91.33,7.83.53,12.29h36.93c2.02-11.01.72-21.92.95-32.74.24-10.98.05-21.96.05-32.94s0-21.81,0-33.18h21.32Z"/>
  <path class="cls-1" d="m2477.98,2617.3h-172.47v-18.39h44.04c2.04-12.02,1.56-22.84-1.47-33.45-1.88-6.58-6.6-10.84-13.49-11.81-7.49-1.06-15.06-1.57-23.19-2.38v-16.7c14.32-1.17,28.37-1.65,41.46,5.73,9.62,5.42,15.01,14.13,17.08,24.63,1.4,7.12,1.59,14.5,2.12,21.77.26,3.57.04,7.16.04,11.42h84.17c0-10.19.68-20.1-.22-29.86-.7-7.57-6.12-12.85-13.6-14.16-7.11-1.24-14.49-1.18-21.75-1.24-4.9-.04-9.81.72-15.43,1.18-.84-5.5-1.56-10.28-2.47-16.24,19.66-4.28,38.42-7.34,56.65,2.6,10.98,5.98,17.73,15.54,18.34,27.98.77,15.89.19,31.85.19,48.92Z"/>
  <path class="cls-1" d="m2285.02,2534.86c.27,2.71.75,5.28.75,7.86.05,25.95.17,51.91-.01,77.86-.15,21.02-10.48,33.1-31.3,37.6-13.64,2.95-26.85,1.22-40.84-2.24,1.06-5.65,1.95-10.42,3-16.07,5.85.28,11.08.65,16.32.76,4.98.1,10.02.37,14.94-.2,12.32-1.42,17.15-8.67,14.65-22.69-4.01,0-8.25.08-12.5-.02-3.99-.1-8.02-.05-11.94-.67-20.33-3.22-30.48-14.36-31.16-35-.25-7.56.3-15.33,1.84-22.72,2.89-13.89,12.42-22.79,26.02-24.08,16.41-1.55,33.07-.37,50.22-.37Zm-21.68,16.98c-8.58.47-15.82.65-23.02,1.34-5.99.57-10.17,4.32-10.72,10.12-.79,8.17-.97,16.51-.29,24.69.53,6.25,5.03,10.11,11.51,10.38,7.24.3,14.5.07,22.53.07v-46.6Z"/>
  <path class="cls-1" d="m1960.57,2522.91v74.87h29.97c.11-10.78.26-21.61.31-32.44.05-10.98.01-21.96.01-32.95v-33.27h20.92v117.55h-95.54v-17.86h22.66v-75.89h21.67Z"/>
  <path class="cls-1" d="m717.62,2547.84c6.75,1.23,12.81,2.34,19.82,3.61-.71,4.96-1.23,9.16-1.92,13.33-3.95,23.61,3.57,33.08,27.58,33.79,14.97.45,29.96.21,44.94.2,1.93,0,3.86-.45,6.97-.83v-63.26h21.08v81.58c-.92.53-1.46,1.13-2.02,1.13-24.63.07-49.27.57-73.88-.14-8.44-.25-17.18-2.57-25.1-5.67-13.99-5.48-21.17-16.58-21.8-31.7-.44-10.37.7-20.54,4.33-32.03Z"/>
  <path class="cls-1" d="m2190.1,2617.32h-66.67v-17.72c14.55-2,29.48.33,44.49-1.41,1.5-11.01,1.16-21.23-1.3-31.28-1.82-7.44-6.68-12.3-14.45-13.36-7.21-.99-14.5-1.44-22.54-2.2v-16.69c12.22-1.2,24.03-1.42,35.52,2.89,13.04,4.9,20.22,14.77,23.06,27.97,3.61,16.78,1.46,33.76,1.88,51.8Z"/>
  <path class="cls-1" d="m890.52,2642.01c1.77-.72,2.08-.94,2.39-.96,16.57-.89,20.65-5.1,20.74-22.13.12-24.29.04-48.58.04-72.88,0-3.57,0-7.15,0-11.4h20.68c.26,2.71.76,5.55.77,8.4.06,25.62.07,51.25-.02,76.87-.01,3.97-.15,8.05-1.03,11.9-4.6,20.14-22.07,30.83-43.58,26.5v-16.3Z"/>
  <path class="cls-1" d="m1577.37,2658.06c.32-5.69.6-10.89.92-16.54,2.66-.25,4.58-.75,6.43-.56,8.15.85,14.57-4.37,16.23-14.16.55-3.25.48-6.63.48-9.95.04-23.63.02-47.25.02-70.88,0-3.58,0-7.16,0-11.35h20.69c.26,2.81.75,5.67.76,8.52.06,25.62.07,51.25-.02,76.87-.01,3.97-.16,8.05-1.05,11.89-4.66,20.15-22.29,30.87-44.46,26.16Z"/>
  <path class="cls-1" d="m876.19,2616.79h-20.14v-117.57h20.14v117.57Z"/>
  <path class="cls-1" d="m2061.76,2616.8h-20.13v-117.57h20.13v117.57Z"/>
  <path class="cls-1" d="m632.16,2499.04c2.46-.2,4.39-.46,6.32-.49,4.29-.07,8.58-.02,12.69-.02,2.11,7.94,2.87,97.84,1.07,117.92h-19.17c-1.98-7.24-2.77-96.14-.9-117.4Z"/>
  <path class="cls-1" d="m1425.3,2637.26c-1.47,2.9-2.64,5.21-4,7.9-7.04.75-16.64-1.11-14.1,12.58,6.73.3,13.51.61,21.13.95.2,3.47.38,6.59.6,10.36h-38.88c-.66-4.2-1.91-8.1,1.98-11.71.99-.92.89-3.05,1.18-4.65,2.88-15.99,16.05-22.75,32.1-15.42Z"/>
  <path class="cls-1" d="m1969.48,2658.26v10.91h-38.91c.35-10.39,2.6-19.86,8.23-27.81,5.79-8.18,16.39-9.35,27.32-4.21-1.26,2.62-2.52,5.24-3.86,8.02-3.16.19-6.13.09-9,.59-4.21.74-6.27,3.8-6.18,7.83.1,4.68,3.8,4.67,7.23,4.66,4.64,0,9.27,0,15.15,0Z"/>
  <path class="cls-1" d="m795.68,2521.21v17.39h-43.48v-17.39h43.48Z"/>
  <path class="cls-1" d="m65.99,2504.86v16.57H22.49v-16.57h43.51Z"/>
  <path class="cls-1" d="m426.52,2516.61h-20.16v-17.33h20.16v17.33Z"/>
  <path class="cls-1" d="m119.02,2635.34v16.97h-20.74v-16.97h20.74Z"/>
  <path class="cls-1" d="m142.53,2652.68h-20.25v-17.42h20.25v17.42Z"/>
  <path class="cls-1" d="m1090.2,2517.04v-16.87h19.84v16.87h-19.84Z"/>
  <path class="cls-1" d="m1192.09,2504.98v16.29h-20.64v-16.29h20.64Z"/>
  <path class="cls-1" d="m1215.39,2521.44h-20.15v-16.61h20.15v16.61Z"/>
  <path class="cls-1" d="m1078.9,2500.34v16.81h-19.01v-16.2c5.73-2.83,11.82-1.83,19.01-.61Z"/>
  <path class="cls-1" d="m1093.36,2491.46h-17.22v-14.54h17.22v14.54Z"/>
</svg>